name Walk5.mot
datacolumns 19
datarows 25
range 3.46000000 3.58000000
endheader

                time	   L_ground_force_vx	   L_ground_force_vy	   L_ground_force_vz	   L_ground_force_px	   L_ground_force_py	   L_ground_force_pz	   R_ground_force_vx	   R_ground_force_vy	   R_ground_force_vz	   R_ground_force_px	   R_ground_force_py	   R_ground_force_pz	   L_ground_torque_x	   L_ground_torque_y	   L_ground_torque_z	   R_ground_torque_x	   R_ground_torque_y	   R_ground_torque_z	
          3.46000000	          0.00000000	          0.00000000	         -0.00000000	         -0.00000000	          0.00000000	         -0.00000000	          4.09891955	         25.37873833	          0.36601371	          0.13300230	          0.00000000	          0.04668375	          0.00000000	          0.00000000	          0.00000000	          0.00000000	         -1.54829499	          0.00000000	
          3.46500000	          0.00000000	          0.00000000	         -0.00000000	         -0.00000000	          0.00000000	         -0.00000000	          1.34529504	         12.30405700	          0.53268731	          0.10303381	          0.00000000	          0.03576195	          0.00000000	          0.00000000	          0.00000000	          0.00000000	         -0.89198389	          0.00000000	
          3.47000000	          0.00000000	          0.00000000	         -0.00000000	         -0.00000000	          0.00000000	         -0.00000000	         -0.52694759	          2.94641500	          0.59744274	          0.07566687	          0.00000000	          0.02592967	          0.00000000	          0.00000000	          0.00000000	          0.00000000	         -0.40055916	          0.00000000	
          3.47500000	          0.00000000	          0.00000000	         -0.00000000	         -0.00000000	          0.00000000	         -0.00000000	         -1.68590533	         -3.28748533	          0.59171865	          0.05213265	          0.00000000	          0.01757370	          0.00000000	          0.00000000	          0.00000000	          0.00000000	         -0.05373861	          0.00000000	
          3.48000000	          0.00000000	          0.00000000	         -0.00000000	         -0.00000000	          0.00000000	         -0.00000000	         -2.29578776	         -7.02516451	          0.54125010	          0.03291754	          0.00000000	          0.01082531	          0.00000000	          0.00000000	          0.00000000	          0.00000000	          0.17292076	          0.00000000	
          3.48500000	          0.00000000	         -0.00000000	         -0.00000000	         -0.00000000	          0.00000000	         -0.00000000	         -2.50532449	         -8.86646020	          0.46607927	          0.01799189	          0.00000000	          0.00564155	          0.00000000	          0.00000000	          0.00000000	          0.00000000	          0.30459709	          0.00000000	
          3.49000000	         -0.00000000	         -0.00000000	         -0.00000000	         -0.00000000	          0.00000000	         -0.00000000	         -2.44155546	         -9.34601765	          0.38101243	          0.00699742	          0.00000000	          0.00187112	          0.00000000	          0.00000000	          0.00000000	          0.00000000	          0.36494861	          0.00000000	
          3.49500000	         -0.00000000	         -0.00000000	         -0.00000000	         -0.00000000	          0.00000000	         -0.00000000	         -2.20756410	         -8.91439157	          0.29632724	         -0.00060654	          0.00000000	         -0.00069476	          0.00000000	          0.00000000	          0.00000000	          0.00000000	          0.37478786	          0.00000000	
          3.50000000	         -0.00000000	         -0.00000000	         -0.00000000	         -0.00000000	          0.00000000	         -0.00000000	         -1.88291835	         -7.93257754	          0.21858437	         -0.00543484	          0.00000000	         -0.00228527	          0.00000000	          0.00000000	          0.00000000	          0.00000000	          0.35145639	          0.00000000	
          3.50500000	         -0.00000000	         -0.00000000	         -0.00000000	         -0.00000000	          0.00000000	         -0.00000000	         -1.52581324	         -6.67558825	          0.15144199	         -0.00810130	          0.00000000	         -0.00312449	          0.00000000	          0.00000000	          0.00000000	          0.00000000	          0.30869842	          0.00000000	
          3.51000000	         -0.00000000	         -0.00000000	         -0.00000000	          0.00000000	          0.00000000	         -0.00000000	         -1.17613528	         -5.34154706	          0.09640765	         -0.00917054	          0.00000000	         -0.00341556	          0.00000000	          0.00000000	          0.00000000	          0.00000000	          0.25686424	          0.00000000	
          3.51500000	         -0.00000000	         -0.00000000	          0.00000000	          0.00000000	          0.00000000	          0.00000000	         -0.85887549	         -4.06360049	          0.05349052	         -0.00913094	          0.00000000	         -0.00333208	          0.00000000	         -0.00000000	          0.00000000	          0.00000000	          0.20330914	          0.00000000	
          3.52000000	         -0.00000000	         -0.00000000	          0.00000000	          0.00000000	          0.00000000	          0.00000000	         -0.58749627	         -2.92269646	          0.02173814	         -0.00838340	          0.00000000	         -0.00301503	          0.00000000	         -0.00000000	          0.00000000	          0.00000000	          0.15288599	          0.00000000	
          3.52500000	         -0.00000000	         -0.00000000	          0.00000000	          0.00000000	          0.00000000	          0.00000000	         -0.36700218	         -1.95990685	         -0.00034327	         -0.00724099	          0.00000000	         -0.00257325	          0.00000000	         -0.00000000	          0.00000000	          0.00000000	          0.10845917	          0.00000000	
          3.53000000	         -0.00000000	         -0.00000000	          0.00000000	          0.00000000	          0.00000000	          0.00000000	         -0.19657816	         -1.18748359	         -0.01447650	         -0.00593571	          0.00000000	         -0.00208644	          0.00000000	         -0.00000000	          0.00000000	          0.00000000	          0.07139130	          0.00000000	
          3.53500000	         -0.00000000	         -0.00000000	          0.00000000	          0.00000000	          0.00000000	          0.00000000	         -0.07174158	         -0.59822792	         -0.02239496	         -0.00462922	          0.00000000	         -0.00160924	          0.00000000	         -0.00000000	          0.00000000	          0.00000000	          0.04197421	          0.00000000	
          3.54000000	         -0.00000000	         -0.00000000	          0.00000000	          0.00000000	          0.00000000	          0.00000000	          0.01398759	         -0.17303708	         -0.02570173	         -0.00342527	          0.00000000	         -0.00117595	          0.00000000	         -0.00000000	          0.00000000	          0.00000000	          0.01978994	          0.00000000	
          3.54500000	         -0.00000000	         -0.00000000	          0.00000000	          0.00000000	          0.00000000	          0.00000000	          0.06785780	          0.11331471	         -0.02578961	         -0.00238231	          0.00000000	         -0.00080509	          0.00000000	         -0.00000000	          0.00000000	          0.00000000	          0.00399846	          0.00000000	
          3.55000000	         -0.00000000	         -0.00000000	          0.00000000	          0.00000000	          0.00000000	          0.00000000	          0.09703699	          0.28798474	         -0.02380632	         -0.00152507	          0.00000000	         -0.00050359	          0.00000000	         -0.00000000	          0.00000000	          0.00000000	         -0.00644454	          0.00000000	
          3.55500000	         -0.00000000	         -0.00000000	          0.00000000	          0.00000000	          0.00000000	          0.00000000	          0.10807459	          0.37722114	         -0.02065168	         -0.00085472	          0.00000000	         -0.00027041	          0.00000000	         -0.00000000	          0.00000000	          0.00000000	         -0.01263175	          0.00000000	
          3.56000000	          0.00000000	          0.00000000	          0.00000000	          0.00000000	          0.00000000	          0.00000000	          0.10660539	          0.40461308	         -0.01699537	         -0.00035724	          0.00000000	         -0.00009950	          0.00000000	         -0.00000000	          0.00000000	          0.00000000	         -0.01560047	          0.00000000	
          3.56500000	          0.00000000	          0.00000000	          0.00000000	          0.00000000	          0.00000000	          0.00000000	          0.09723202	          0.39017900	         -0.01330653	         -0.00000996	          0.00000000	          0.00001798	          0.00000000	         -0.00000000	          0.00000000	          0.00000000	         -0.01627045	          0.00000000	
          3.57000000	          0.00000000	          0.00000000	          0.00000000	          0.00000000	          0.00000000	          0.00000000	          0.08353119	          0.35006426	         -0.00988855	          0.00021353	          0.00000000	          0.00009189	          0.00000000	         -0.00000000	          0.00000000	          0.00000000	         -0.01541329	          0.00000000	
          3.57500000	          0.00000000	          0.00000000	          0.00000000	          0.00000000	          0.00000000	          0.00000000	          0.06813880	          0.29665361	         -0.00691461	          0.00033996	          0.00000000	          0.00013202	          0.00000000	         -0.00000000	          0.00000000	          0.00000000	         -0.01364461	          0.00000000	
          3.58000000	          0.00000000	          0.00000000	          0.00000000	         -0.00000000	          0.00000000	          0.00000000	          0.05287901	          0.23894068	         -0.00446061	          0.00039415	          0.00000000	          0.00014731	          0.00000000	         -0.00000000	          0.00000000	          0.00000000	         -0.01143126	          0.00000000	
